<svg xmlns="http://www.w3.org/2000/svg" viewBox="0 0 120 80">
  <rect width="120" height="80" rx="4" fill="#0a0a0f"/>
  <!-- Scanlines -->
  <g opacity="0.15">
    <line x1="0" y1="4" x2="120" y2="4" stroke="#FF00FF" stroke-width="0.5"/>
    <line x1="0" y1="12" x2="120" y2="12" stroke="#FF00FF" stroke-width="0.5"/>
    <line x1="0" y1="20" x2="120" y2="20" stroke="#FF00FF" stroke-width="0.5"/>
    <line x1="0" y1="28" x2="120" y2="28" stroke="#FF00FF" stroke-width="0.5"/>
    <line x1="0" y1="36" x2="120" y2="36" stroke="#FF00FF" stroke-width="0.5"/>
    <line x1="0" y1="44" x2="120" y2="44" stroke="#FF00FF" stroke-width="0.5"/>
    <line x1="0" y1="52" x2="120" y2="52" stroke="#FF00FF" stroke-width="0.5"/>
    <line x1="0" y1="60" x2="120" y2="60" stroke="#FF00FF" stroke-width="0.5"/>
    <line x1="0" y1="68" x2="120" y2="68" stroke="#FF00FF" stroke-width="0.5"/>
    <line x1="0" y1="76" x2="120" y2="76" stroke="#FF00FF" stroke-width="0.5"/>
  </g>
  <rect x="16" y="16" width="88" height="48" rx="8" fill="none" stroke="#FF00FF" stroke-width="1.5" opacity="0.5"/>
  <text x="32" y="46" font-family="monospace" font-size="14" fill="#FF00FF" opacity="0.7">VHS</text>
  <rect x="72" y="32" width="24" height="4" rx="2" fill="#FF00FF" opacity="0.4"/>
  <rect x="72" y="40" width="16" height="4" rx="2" fill="#FF00FF" opacity="0.3"/>
  <!-- Tracking bar -->
  <rect x="8" y="72" width="104" height="2" rx="1" fill="#FF00FF" opacity="0.3"/>
  <rect x="8" y="72" width="40" height="2" rx="1" fill="#FF00FF" opacity="0.6"/>
</svg>
