<svg viewBox="0 0 64 64" xmlns="http://www.w3.org/2000/svg">
  <defs>
    <linearGradient id="sunGrad" x1="0" y1="0" x2="0" y2="1">
      <stop offset="0%" stop-color="#FFD700"/>
      <stop offset="100%" stop-color="#FF8C00"/>
    </linearGradient>
    <linearGradient id="waterGrad" x1="0" y1="0" x2="1" y2="0">
      <stop offset="0%" stop-color="#FF8C00" stop-opacity="0.6"/>
      <stop offset="50%" stop-color="#FFD700" stop-opacity="0.4"/>
      <stop offset="100%" stop-color="#FF8C00" stop-opacity="0.6"/>
    </linearGradient>
  </defs>
  <!-- Sun body -->
  <circle cx="32" cy="24" r="10" fill="url(#sunGrad)" stroke="#FF8C00" stroke-width="1"/>
  <!-- Sun rays -->
  <g stroke="#FF8C00" stroke-width="2" stroke-linecap="round">
    <line x1="32" y1="8" x2="32" y2="4"/>
    <line x1="32" y1="40" x2="32" y2="44"/>
    <line x1="16" y1="24" x2="12" y2="24"/>
    <line x1="48" y1="24" x2="52" y2="24"/>
    <line x1="20.7" y1="12.7" x2="17.9" y2="9.9"/>
    <line x1="43.3" y1="12.7" x2="46.1" y2="9.9"/>
    <line x1="20.7" y1="35.3" x2="17.9" y2="38.1"/>
    <line x1="43.3" y1="35.3" x2="46.1" y2="38.1"/>
  </g>
  <!-- Water waves -->
  <path d="M6 50 Q14 44, 22 50 Q30 56, 38 50 Q46 44, 54 50 Q58 53, 62 50" fill="none" stroke="url(#waterGrad)" stroke-width="2.5" stroke-linecap="round"/>
  <path d="M4 56 Q12 50, 20 56 Q28 62, 36 56 Q44 50, 52 56 Q56 59, 60 56" fill="none" stroke="url(#waterGrad)" stroke-width="2" stroke-linecap="round" opacity="0.6"/>
</svg>